<mxfile host="Electron" agent="Mozilla/5.0 (Windows NT 10.0; Win64; x64) AppleWebKit/537.36 (KHTML, like Gecko) draw.io/26.0.9 Chrome/128.0.6613.186 Electron/32.2.5 Safari/537.36" version="26.0.9">
  <diagram name="Page-1" id="architecture_scaled">
    <mxGraphModel dx="1292" dy="1162" grid="1" gridSize="10" guides="1" tooltips="1" connect="1" arrows="1" fold="1" page="1" pageScale="1" pageWidth="827" pageHeight="1169" math="0" shadow="0">
      <root>
        <mxCell id="0" />
        <mxCell id="1" parent="0" />
        <mxCell id="cache_area" value="" style="rounded=0;whiteSpace=wrap;html=1;fillColor=#fff2cc;strokeColor=#d6b656;opacity=20;" parent="1" vertex="1">
          <mxGeometry x="220" y="20" width="360" height="100" as="geometry" />
        </mxCell>
        <mxCell id="user" value="Пользователь" style="ellipse;whiteSpace=wrap;html=1;fillColor=#dae8fc;strokeColor=#6c8ebf;" parent="1" vertex="1">
          <mxGeometry x="40" y="40" width="120" height="60" as="geometry" />
        </mxCell>
        <mxCell id="gateway" value="API Gateway&#xa;(Nginx)" style="rounded=0;whiteSpace=wrap;html=1;fillColor=#dae8fc;strokeColor=#6c8ebf;" parent="1" vertex="1">
          <mxGeometry x="240" y="40" width="120" height="60" as="geometry" />
        </mxCell>
        <mxCell id="consul" value="Consul&#xa;(Service Discovery)" style="rounded=0;whiteSpace=wrap;html=1;fillColor=#e1d5e7;strokeColor=#9673a6;" parent="1" vertex="1">
          <mxGeometry x="40" y="160" width="120" height="60" as="geometry" />
        </mxCell>
        <mxCell id="api1" value="API Application 1&#xa;(FastAPI)" style="rounded=0;whiteSpace=wrap;html=1;fillColor=#d5e8d4;strokeColor=#82b366;" parent="1" vertex="1">
          <mxGeometry x="360" y="340" width="120" height="60" as="geometry" />
        </mxCell>
        <mxCell id="api2" value="API Application 2&#xa;(FastAPI)" style="rounded=0;whiteSpace=wrap;html=1;fillColor=#d5e8d4;strokeColor=#82b366;" parent="1" vertex="1">
          <mxGeometry x="590" y="340" width="120" height="60" as="geometry" />
        </mxCell>
        <mxCell id="redis" value="Redis Cache&#xa;(TTL: 300s)" style="rounded=0;whiteSpace=wrap;html=1;fillColor=#fff2cc;strokeColor=#d6b656;" parent="1" vertex="1">
          <mxGeometry x="800" y="200" width="120" height="60" as="geometry" />
        </mxCell>
        <mxCell id="mongos" value="MongoDB Router&#xa;(mongos)" style="rounded=0;whiteSpace=wrap;html=1;fillColor=#ffe6cc;strokeColor=#d79b00;" parent="1" vertex="1">
          <mxGeometry x="580" y="525" width="120" height="60" as="geometry" />
        </mxCell>
        <mxCell id="configsvr" value="Config Server" style="rounded=0;whiteSpace=wrap;html=1;fillColor=#e1d5e7;strokeColor=#9673a6;" parent="1" vertex="1">
          <mxGeometry x="300" y="730" width="120" height="60" as="geometry" />
        </mxCell>
        <mxCell id="shard1_primary" value="Shard 1&#xa;Primary" style="rounded=0;whiteSpace=wrap;html=1;fillColor=#f8cecc;strokeColor=#b85450;" parent="1" vertex="1">
          <mxGeometry x="480" y="730" width="120" height="60" as="geometry" />
        </mxCell>
        <mxCell id="shard1_secondary" value="Shard 1&#xa;Secondary" style="rounded=0;whiteSpace=wrap;html=1;fillColor=#f8cecc;strokeColor=#b85450;" parent="1" vertex="1">
          <mxGeometry x="660" y="730" width="120" height="60" as="geometry" />
        </mxCell>
        <mxCell id="shard2_primary" value="Shard 2&#xa;Primary" style="rounded=0;whiteSpace=wrap;html=1;fillColor=#f8cecc;strokeColor=#b85450;" parent="1" vertex="1">
          <mxGeometry x="820" y="730" width="120" height="60" as="geometry" />
        </mxCell>
        <mxCell id="shard2_secondary" value="Shard 2&#xa;Secondary" style="rounded=0;whiteSpace=wrap;html=1;fillColor=#f8cecc;strokeColor=#b85450;" parent="1" vertex="1">
          <mxGeometry x="1000" y="730" width="120" height="60" as="geometry" />
        </mxCell>
        <mxCell id="conn1" value="HTTP/HTTPS" style="endArrow=classic;html=1;rounded=0;exitX=1;exitY=0.5;entryX=0;entryY=0.5;" parent="1" source="user" target="gateway" edge="1">
          <mxGeometry relative="1" as="geometry" />
        </mxCell>
        <mxCell id="conn2" value="Load Balancing" style="endArrow=classic;html=1;rounded=0;exitX=1;exitY=0.5;entryX=0;entryY=0.5;" parent="1" source="gateway" target="api1" edge="1">
          <mxGeometry relative="1" as="geometry" />
        </mxCell>
        <mxCell id="conn3" value="Load Balancing" style="endArrow=classic;html=1;rounded=0;exitX=1;exitY=0.5;entryX=0;entryY=0.5;" parent="1" source="gateway" target="api2" edge="1">
          <mxGeometry relative="1" as="geometry" />
        </mxCell>
        <mxCell id="conn4" value="Service Discovery" style="endArrow=classic;html=1;rounded=0;exitX=0.5;exitY=1;entryX=0;entryY=0.5;dashed=1;exitDx=0;exitDy=0;" parent="1" source="consul" target="api1" edge="1">
          <mxGeometry relative="1" as="geometry">
            <Array as="points">
              <mxPoint x="100" y="370" />
            </Array>
          </mxGeometry>
        </mxCell>
        <mxCell id="conn5" value="Service Discovery" style="endArrow=classic;html=1;rounded=0;exitX=1;exitY=0.5;entryX=0;entryY=0.5;dashed=1;" parent="1" source="consul" target="api2" edge="1">
          <mxGeometry relative="1" as="geometry" />
        </mxCell>
        <mxCell id="conn6" value="Кеширование&#xa;(TTL: 300s)" style="endArrow=classic;html=1;rounded=0;exitX=1;exitY=0.5;entryX=0;entryY=0.5;" parent="1" source="api1" target="redis" edge="1">
          <mxGeometry relative="1" as="geometry" />
        </mxCell>
        <mxCell id="conn7" value="Кеширование&#xa;(TTL: 300s)" style="endArrow=classic;html=1;rounded=0;exitX=1;exitY=0.5;entryX=0.5;entryY=1;entryDx=0;entryDy=0;" parent="1" source="api2" target="redis" edge="1">
          <mxGeometry relative="1" as="geometry">
            <Array as="points">
              <mxPoint x="860" y="370" />
            </Array>
          </mxGeometry>
        </mxCell>
        <mxCell id="conn8" value="MongoDB Protocol" style="endArrow=classic;html=1;rounded=0;exitX=0.5;exitY=1;entryX=0.5;entryY=0;entryDx=0;entryDy=0;exitDx=0;exitDy=0;" parent="1" source="api1" target="mongos" edge="1">
          <mxGeometry relative="1" as="geometry" />
        </mxCell>
        <mxCell id="conn9" value="MongoDB Protocol" style="endArrow=classic;html=1;rounded=0;exitX=0.5;exitY=1;entryX=0.5;entryY=0;entryDx=0;entryDy=0;exitDx=0;exitDy=0;" parent="1" source="api2" target="mongos" edge="1">
          <mxGeometry relative="1" as="geometry" />
        </mxCell>
        <mxCell id="conn10" value="MongoDB Protocol" style="endArrow=classic;html=1;rounded=0;exitX=-0.008;exitY=0.633;entryX=0;entryY=0.5;exitDx=0;exitDy=0;exitPerimeter=0;" parent="1" source="mongos" target="configsvr" edge="1">
          <mxGeometry relative="1" as="geometry" />
        </mxCell>
        <mxCell id="conn11" value="MongoDB Protocol" style="endArrow=classic;html=1;rounded=0;exitX=0.5;exitY=1;entryX=0;entryY=0.5;" parent="1" source="mongos" target="shard1_primary" edge="1">
          <mxGeometry relative="1" as="geometry" />
        </mxCell>
        <mxCell id="conn12" value="MongoDB Protocol" style="endArrow=classic;html=1;rounded=0;exitX=0.5;exitY=1;entryX=0;entryY=0.5;" parent="1" source="mongos" target="shard2_primary" edge="1">
          <mxGeometry relative="1" as="geometry" />
        </mxCell>
        <mxCell id="repl1" value="Replication" style="endArrow=classic;html=1;rounded=0;exitX=1;exitY=0.5;entryX=0;entryY=0.5;dashed=1;" parent="1" source="shard1_primary" target="shard1_secondary" edge="1">
          <mxGeometry relative="1" as="geometry" />
        </mxCell>
        <mxCell id="repl2" value="Replication" style="endArrow=classic;html=1;rounded=0;exitX=1;exitY=0.5;entryX=0;entryY=0.5;dashed=1;" parent="1" source="shard2_primary" target="shard2_secondary" edge="1">
          <mxGeometry relative="1" as="geometry" />
        </mxCell>
        <mxCell id="title" value="Архитектура MongoDB с горизонтальным масштабированием" style="text;html=1;strokeColor=none;fillColor=none;align=center;verticalAlign=middle;whiteSpace=wrap;rounded=0;fontSize=16;fontStyle=1" parent="1" vertex="1">
          <mxGeometry width="800" height="20" as="geometry" />
        </mxCell>
        <mxCell id="SCiGyBjGeWBM0Uq5Eu4k-2" value="" style="endArrow=classic;html=1;rounded=0;exitX=0.5;exitY=1;entryX=0.5;entryY=0;exitDx=0;exitDy=0;entryDx=0;entryDy=0;" edge="1" parent="1">
          <mxGeometry relative="1" as="geometry">
            <mxPoint x="300" y="99" as="sourcePoint" />
            <mxPoint x="100" y="159" as="targetPoint" />
          </mxGeometry>
        </mxCell>
      </root>
    </mxGraphModel>
  </diagram>
</mxfile>
